<?xml version="1.0" encoding="UTF-8" standalone="no"?>
<!DOCTYPE svg PUBLIC "-//W3C//DTD SVG 1.1//EN"
 "http://www.w3.org/Graphics/SVG/1.1/DTD/svg11.dtd">
<!-- Generated by graphviz version 2.44.1 (20200629.0846)
 -->
<!-- Title: dependencies Pages: 1 -->
<svg width="2659pt" height="284pt"
 viewBox="0.00 0.00 2659.00 284.00" xmlns="http://www.w3.org/2000/svg" xmlns:xlink="http://www.w3.org/1999/xlink">
<g id="graph0" class="graph" transform="scale(1 1) rotate(0) translate(4 280)">
<title>dependencies</title>
<polygon fill="white" stroke="transparent" points="-4,4 -4,-280 2655,-280 2655,4 -4,4"/>
<text text-anchor="start" x="1304.51" y="-42.4" font-family="sans-serif" font-weight="bold" font-size="14.00">Legend</text>
<polygon fill="#ffffb3" stroke="transparent" points="1091.5,-10 1091.5,-30 1111.5,-30 1111.5,-10 1091.5,-10"/>
<text text-anchor="start" x="1115.13" y="-15.4" font-family="sans-serif" font-size="14.00"> &#160;Declarations</text>
<polygon fill="#8dd3c7" stroke="transparent" points="1204.5,-10 1204.5,-30 1224.5,-30 1224.5,-10 1204.5,-10"/>
<text text-anchor="start" x="1228.23" y="-15.4" font-family="sans-serif" font-size="14.00"> &#160;Module</text>
<polygon fill="#80b1d3" stroke="transparent" points="1290.5,-10 1290.5,-30 1310.5,-30 1310.5,-10 1290.5,-10"/>
<text text-anchor="start" x="1314.28" y="-15.4" font-family="sans-serif" font-size="14.00"> &#160;Bootstrap</text>
<polygon fill="#fdb462" stroke="transparent" points="1387.5,-10 1387.5,-30 1407.5,-30 1407.5,-10 1387.5,-10"/>
<text text-anchor="start" x="1411.17" y="-15.4" font-family="sans-serif" font-size="14.00"> &#160;Providers</text>
<polygon fill="#fb8072" stroke="transparent" points="1483.5,-10 1483.5,-30 1503.5,-30 1503.5,-10 1483.5,-10"/>
<text text-anchor="start" x="1507.23" y="-15.4" font-family="sans-serif" font-size="14.00"> &#160;Exports</text>
<g id="clust1" class="cluster">
<title>cluster_AppModule</title>
<polygon fill="none" stroke="black" stroke-dasharray="1,5" points="8,-70 8,-268 2643,-268 2643,-70 8,-70"/>
</g>
<g id="clust19" class="cluster">
<title>cluster_AppModule_providers</title>
<polygon fill="none" stroke="black" points="2131,-78 2131,-130 2635,-130 2635,-78 2131,-78"/>
</g>
<g id="clust16" class="cluster">
<title>cluster_AppModule_imports</title>
<polygon fill="none" stroke="black" points="1979,-78 1979,-130 2123,-130 2123,-78 1979,-78"/>
</g>
<g id="clust18" class="cluster">
<title>cluster_AppModule_bootstrap</title>
<polygon fill="none" stroke="black" points="1185,-208 1185,-260 1309,-260 1309,-208 1185,-208"/>
</g>
<g id="clust2" class="cluster">
<title>cluster_AppModule_declarations</title>
<polygon fill="none" stroke="black" points="16,-78 16,-130 1971,-130 1971,-78 16,-78"/>
</g>
<!-- AppComponent -->
<g id="node1" class="node">
<title>AppComponent</title>
<polygon fill="#ffffb3" stroke="black" points="1962.94,-122 1857.06,-122 1857.06,-86 1962.94,-86 1962.94,-122"/>
<text text-anchor="middle" x="1910" y="-99.8" font-family="Times,serif" font-size="14.00">AppComponent</text>
</g>
<!-- AppModule -->
<g id="node14" class="node">
<title>AppModule</title>
<polygon fill="#8dd3c7" stroke="black" points="1288.66,-187 1285.66,-191 1264.66,-191 1261.66,-187 1205.34,-187 1205.34,-151 1288.66,-151 1288.66,-187"/>
<text text-anchor="middle" x="1247" y="-164.8" font-family="Times,serif" font-size="14.00">AppModule</text>
</g>
<!-- AppComponent&#45;&gt;AppModule -->
<g id="edge1" class="edge">
<title>AppComponent&#45;&gt;AppModule</title>
<path fill="none" stroke="black" d="M1910,-122.22C1910,-140.83 1910,-167 1910,-167 1910,-167 1298.72,-167 1298.72,-167"/>
<polygon fill="black" stroke="black" points="1298.72,-163.5 1288.72,-167 1298.72,-170.5 1298.72,-163.5"/>
</g>
<!-- CompCreateComponent -->
<g id="node2" class="node">
<title>CompCreateComponent</title>
<polygon fill="#ffffb3" stroke="black" points="1839.09,-122 1686.91,-122 1686.91,-86 1839.09,-86 1839.09,-122"/>
<text text-anchor="middle" x="1763" y="-99.8" font-family="Times,serif" font-size="14.00">CompCreateComponent</text>
</g>
<!-- CompCreateComponent&#45;&gt;AppModule -->
<g id="edge2" class="edge">
<title>CompCreateComponent&#45;&gt;AppModule</title>
<path fill="none" stroke="black" d="M1763,-122.02C1763,-139.37 1763,-163 1763,-163 1763,-163 1298.79,-163 1298.79,-163"/>
<polygon fill="black" stroke="black" points="1298.79,-159.5 1288.79,-163 1298.79,-166.5 1298.79,-159.5"/>
</g>
<!-- CompDashboardComponent -->
<g id="node3" class="node">
<title>CompDashboardComponent</title>
<polygon fill="#ffffb3" stroke="black" points="1669.2,-122 1492.8,-122 1492.8,-86 1669.2,-86 1669.2,-122"/>
<text text-anchor="middle" x="1581" y="-99.8" font-family="Times,serif" font-size="14.00">CompDashboardComponent</text>
</g>
<!-- CompDashboardComponent&#45;&gt;AppModule -->
<g id="edge3" class="edge">
<title>CompDashboardComponent&#45;&gt;AppModule</title>
<path fill="none" stroke="black" d="M1581,-122.01C1581,-138.05 1581,-159 1581,-159 1581,-159 1298.96,-159 1298.96,-159"/>
<polygon fill="black" stroke="black" points="1298.96,-155.5 1288.96,-159 1298.96,-162.5 1298.96,-155.5"/>
</g>
<!-- CompetitionComponent -->
<g id="node4" class="node">
<title>CompetitionComponent</title>
<polygon fill="#ffffb3" stroke="black" points="1474.84,-122 1323.16,-122 1323.16,-86 1474.84,-86 1474.84,-122"/>
<text text-anchor="middle" x="1399" y="-99.8" font-family="Times,serif" font-size="14.00">CompetitionComponent</text>
</g>
<!-- CompetitionComponent&#45;&gt;AppModule -->
<g id="edge4" class="edge">
<title>CompetitionComponent&#45;&gt;AppModule</title>
<path fill="none" stroke="black" d="M1399,-122.12C1399,-136.78 1399,-155 1399,-155 1399,-155 1298.94,-155 1298.94,-155"/>
<polygon fill="black" stroke="black" points="1298.94,-151.5 1288.94,-155 1298.94,-158.5 1298.94,-151.5"/>
</g>
<!-- EditorComponent -->
<g id="node5" class="node">
<title>EditorComponent</title>
<polygon fill="#ffffb3" stroke="black" points="1305.33,-122 1188.67,-122 1188.67,-86 1305.33,-86 1305.33,-122"/>
<text text-anchor="middle" x="1247" y="-99.8" font-family="Times,serif" font-size="14.00">EditorComponent</text>
</g>
<!-- EditorComponent&#45;&gt;AppModule -->
<g id="edge5" class="edge">
<title>EditorComponent&#45;&gt;AppModule</title>
<path fill="none" stroke="black" d="M1247,-122.11C1247,-122.11 1247,-140.99 1247,-140.99"/>
<polygon fill="black" stroke="black" points="1243.5,-140.99 1247,-150.99 1250.5,-140.99 1243.5,-140.99"/>
</g>
<!-- EditorDialogComponent -->
<g id="node6" class="node">
<title>EditorDialogComponent</title>
<polygon fill="#ffffb3" stroke="black" points="1171.43,-122 1016.57,-122 1016.57,-86 1171.43,-86 1171.43,-122"/>
<text text-anchor="middle" x="1094" y="-99.8" font-family="Times,serif" font-size="14.00">EditorDialogComponent</text>
</g>
<!-- EditorDialogComponent&#45;&gt;AppModule -->
<g id="edge6" class="edge">
<title>EditorDialogComponent&#45;&gt;AppModule</title>
<path fill="none" stroke="black" d="M1094,-122.12C1094,-136.78 1094,-155 1094,-155 1094,-155 1195.19,-155 1195.19,-155"/>
<polygon fill="black" stroke="black" points="1195.19,-158.5 1205.19,-155 1195.19,-151.5 1195.19,-158.5"/>
</g>
<!-- HomeComponent -->
<g id="node7" class="node">
<title>HomeComponent</title>
<polygon fill="#ffffb3" stroke="black" points="998.55,-122 883.45,-122 883.45,-86 998.55,-86 998.55,-122"/>
<text text-anchor="middle" x="941" y="-99.8" font-family="Times,serif" font-size="14.00">HomeComponent</text>
</g>
<!-- HomeComponent&#45;&gt;AppModule -->
<g id="edge7" class="edge">
<title>HomeComponent&#45;&gt;AppModule</title>
<path fill="none" stroke="black" d="M941,-122.01C941,-138.05 941,-159 941,-159 941,-159 1195.09,-159 1195.09,-159"/>
<polygon fill="black" stroke="black" points="1195.09,-162.5 1205.09,-159 1195.09,-155.5 1195.09,-162.5"/>
</g>
<!-- LoadingComponent -->
<g id="node8" class="node">
<title>LoadingComponent</title>
<polygon fill="#ffffb3" stroke="black" points="864.99,-122 737.01,-122 737.01,-86 864.99,-86 864.99,-122"/>
<text text-anchor="middle" x="801" y="-99.8" font-family="Times,serif" font-size="14.00">LoadingComponent</text>
</g>
<!-- LoadingComponent&#45;&gt;AppModule -->
<g id="edge8" class="edge">
<title>LoadingComponent&#45;&gt;AppModule</title>
<path fill="none" stroke="black" d="M801,-122.02C801,-139.37 801,-163 801,-163 801,-163 1195.04,-163 1195.04,-163"/>
<polygon fill="black" stroke="black" points="1195.04,-166.5 1205.04,-163 1195.04,-159.5 1195.04,-166.5"/>
</g>
<!-- LoginComponent -->
<g id="node9" class="node">
<title>LoginComponent</title>
<polygon fill="#ffffb3" stroke="black" points="719.28,-122 604.72,-122 604.72,-86 719.28,-86 719.28,-122"/>
<text text-anchor="middle" x="662" y="-99.8" font-family="Times,serif" font-size="14.00">LoginComponent</text>
</g>
<!-- LoginComponent&#45;&gt;AppModule -->
<g id="edge9" class="edge">
<title>LoginComponent&#45;&gt;AppModule</title>
<path fill="none" stroke="black" d="M662,-122.22C662,-140.83 662,-167 662,-167 662,-167 1194.93,-167 1194.93,-167"/>
<polygon fill="black" stroke="black" points="1194.93,-170.5 1204.93,-167 1194.93,-163.5 1194.93,-170.5"/>
</g>
<!-- PastcontestComponent -->
<g id="node10" class="node">
<title>PastcontestComponent</title>
<polygon fill="#ffffb3" stroke="black" points="586.32,-122 441.68,-122 441.68,-86 586.32,-86 586.32,-122"/>
<text text-anchor="middle" x="514" y="-99.8" font-family="Times,serif" font-size="14.00">PastcontestComponent</text>
</g>
<!-- PastcontestComponent&#45;&gt;AppModule -->
<g id="edge10" class="edge">
<title>PastcontestComponent&#45;&gt;AppModule</title>
<path fill="none" stroke="black" d="M514,-122.31C514,-142.15 514,-171 514,-171 514,-171 1195.22,-171 1195.22,-171"/>
<polygon fill="black" stroke="black" points="1195.22,-174.5 1205.22,-171 1195.22,-167.5 1195.22,-174.5"/>
</g>
<!-- ProfileComponent -->
<g id="node11" class="node">
<title>ProfileComponent</title>
<polygon fill="#ffffb3" stroke="black" points="423.93,-122 304.07,-122 304.07,-86 423.93,-86 423.93,-122"/>
<text text-anchor="middle" x="364" y="-99.8" font-family="Times,serif" font-size="14.00">ProfileComponent</text>
</g>
<!-- ProfileComponent&#45;&gt;AppModule -->
<g id="edge11" class="edge">
<title>ProfileComponent&#45;&gt;AppModule</title>
<path fill="none" stroke="black" d="M364,-122.28C364,-143.32 364,-175 364,-175 364,-175 1195.3,-175 1195.3,-175"/>
<polygon fill="black" stroke="black" points="1195.3,-178.5 1205.3,-175 1195.3,-171.5 1195.3,-178.5"/>
</g>
<!-- RegisterComponent -->
<g id="node12" class="node">
<title>RegisterComponent</title>
<polygon fill="#ffffb3" stroke="black" points="285.98,-122 158.02,-122 158.02,-86 285.98,-86 285.98,-122"/>
<text text-anchor="middle" x="222" y="-99.8" font-family="Times,serif" font-size="14.00">RegisterComponent</text>
</g>
<!-- RegisterComponent&#45;&gt;AppModule -->
<g id="edge12" class="edge">
<title>RegisterComponent&#45;&gt;AppModule</title>
<path fill="none" stroke="black" d="M222,-122.16C222,-144.35 222,-179 222,-179 222,-179 1195.23,-179 1195.23,-179"/>
<polygon fill="black" stroke="black" points="1195.23,-182.5 1205.23,-179 1195.23,-175.5 1195.23,-182.5"/>
</g>
<!-- TimerComponent -->
<g id="node13" class="node">
<title>TimerComponent</title>
<polygon fill="#ffffb3" stroke="black" points="139.54,-122 24.46,-122 24.46,-86 139.54,-86 139.54,-122"/>
<text text-anchor="middle" x="82" y="-99.8" font-family="Times,serif" font-size="14.00">TimerComponent</text>
</g>
<!-- TimerComponent&#45;&gt;AppModule -->
<g id="edge13" class="edge">
<title>TimerComponent&#45;&gt;AppModule</title>
<path fill="none" stroke="black" d="M82,-122.32C82,-145.66 82,-183 82,-183 82,-183 1195.19,-183 1195.19,-183"/>
<polygon fill="black" stroke="black" points="1195.19,-186.5 1205.19,-183 1195.19,-179.5 1195.19,-186.5"/>
</g>
<!-- AppComponent  -->
<g id="node16" class="node">
<title>AppComponent </title>
<polygon fill="#80b1d3" stroke="black" points="1301.44,-252 1192.56,-252 1192.56,-216 1301.44,-216 1301.44,-252"/>
<text text-anchor="middle" x="1247" y="-229.8" font-family="Times,serif" font-size="14.00">AppComponent </text>
</g>
<!-- AppModule&#45;&gt;AppComponent  -->
<g id="edge15" class="edge">
<title>AppModule&#45;&gt;AppComponent </title>
<path fill="none" stroke="black" stroke-dasharray="1,5" d="M1247,-187.11C1247,-187.11 1247,-205.99 1247,-205.99"/>
<polygon fill="black" stroke="black" points="1243.5,-205.99 1247,-215.99 1250.5,-205.99 1243.5,-205.99"/>
</g>
<!-- AppRoutingModule -->
<g id="node15" class="node">
<title>AppRoutingModule</title>
<polygon fill="#8dd3c7" stroke="black" points="2115.27,-122 2112.27,-126 2091.27,-126 2088.27,-122 1986.73,-122 1986.73,-86 2115.27,-86 2115.27,-122"/>
<text text-anchor="middle" x="2051" y="-99.8" font-family="Times,serif" font-size="14.00">AppRoutingModule</text>
</g>
<!-- AppRoutingModule&#45;&gt;AppModule -->
<g id="edge14" class="edge">
<title>AppRoutingModule&#45;&gt;AppModule</title>
<path fill="none" stroke="black" d="M2051,-122.31C2051,-142.15 2051,-171 2051,-171 2051,-171 1298.81,-171 1298.81,-171"/>
<polygon fill="black" stroke="black" points="1298.81,-167.5 1288.81,-171 1298.81,-174.5 1298.81,-167.5"/>
</g>
<!-- LoginService -->
<g id="node17" class="node">
<title>LoginService</title>
<ellipse fill="#fdb462" stroke="black" cx="2564" cy="-104" rx="63.12" ry="18"/>
<text text-anchor="middle" x="2564" y="-99.8" font-family="Times,serif" font-size="14.00">LoginService</text>
</g>
<!-- LoginService&#45;&gt;AppModule -->
<g id="edge16" class="edge">
<title>LoginService&#45;&gt;AppModule</title>
<path fill="none" stroke="black" d="M2564,-122.32C2564,-145.66 2564,-183 2564,-183 2564,-183 1298.96,-183 1298.96,-183"/>
<polygon fill="black" stroke="black" points="1298.96,-179.5 1288.96,-183 1298.96,-186.5 1298.96,-179.5"/>
</g>
<!-- RegService -->
<g id="node18" class="node">
<title>RegService</title>
<ellipse fill="#fdb462" stroke="black" cx="2427" cy="-104" rx="55.59" ry="18"/>
<text text-anchor="middle" x="2427" y="-99.8" font-family="Times,serif" font-size="14.00">RegService</text>
</g>
<!-- RegService&#45;&gt;AppModule -->
<g id="edge17" class="edge">
<title>RegService&#45;&gt;AppModule</title>
<path fill="none" stroke="black" d="M2427,-122.16C2427,-144.35 2427,-179 2427,-179 2427,-179 1299,-179 1299,-179"/>
<polygon fill="black" stroke="black" points="1299,-175.5 1289,-179 1299,-182.5 1299,-175.5"/>
</g>
<!-- TokenInterceptorService -->
<g id="node19" class="node">
<title>TokenInterceptorService</title>
<ellipse fill="#fdb462" stroke="black" cx="2246" cy="-104" rx="107.04" ry="18"/>
<text text-anchor="middle" x="2246" y="-99.8" font-family="Times,serif" font-size="14.00">TokenInterceptorService</text>
</g>
<!-- TokenInterceptorService&#45;&gt;AppModule -->
<g id="edge18" class="edge">
<title>TokenInterceptorService&#45;&gt;AppModule</title>
<path fill="none" stroke="black" d="M2246,-122.28C2246,-143.32 2246,-175 2246,-175 2246,-175 1298.97,-175 1298.97,-175"/>
<polygon fill="black" stroke="black" points="1298.97,-171.5 1288.97,-175 1298.97,-178.5 1298.97,-171.5"/>
</g>
</g>
</svg>
